<svg width="1em" height="1em" viewBox="0 0 24 24" fill="none" xmlns="http://www.w3.org/2000/svg"><g clip-path="url(#doc-rating_svg__clip0)"><path d="M7.926 5.503a.833.833 0 011.366-.286l3.617 3.627 5.131.265c.606.031.976.68.696 1.217l-2.363 4.529 1.302 4.875a.833.833 0 01-.967 1.032l-5.09-1.01-4.259 2.965a.833.833 0 01-1.3-.559L5.3 17.17l-3.978-3.203a.833.833 0 01.15-1.394l4.595-2.298 1.86-4.772z" fill="#FBCD2C"></path><path d="M19.937 1.136a.36.36 0 01.572.193l.553 2.141 1.853 1.221a.36.36 0 01-.008.606l-1.87 1.17-.581 2.1a.36.36 0 01-.586.172L18.195 7.25l-2.234.172a.36.36 0 01-.362-.492l.808-2.024-.781-2.063a.36.36 0 01.36-.486l2.215.15 1.736-1.37z" fill="#DDE3E8"></path></g><defs><clipPath id="doc-rating_svg__clip0"><path fill="#fff" d="M0 0h24v24H0z"></path></clipPath></defs></svg>